<svg xmlns="http://www.w3.org/2000/svg" width="709px" height="196px" viewBox="0 0 7090 1960" preserveAspectRatio="xMidYMid meet"><g id="layer101" fill="#259709" stroke="none"><path d="M350 1941 c-89 -29 -141 -60 -206 -125 -65 -65 -102 -127 -128 -215 -14 -47 -16 -129 -16 -621 0 -615 0 -611 57 -725 33 -64 134 -165 198 -198 123 -62 -149 -57 3290 -57 3439 0 3167 -5 3290 57 64 33 165 134 198 198 57 114 57 110 57 725 0 615 0 611 -57 725 -33 64 -134 165 -198 198 -123 62 149 57 -3294 56 -2977 0 -3139 -1 -3191 -18z"></path></g><g id="layer102" fill="#25b900" stroke="none"><path d="M383 1826 c-181 -44 -334 -202 -372 -384 -7 -34 -11 -223 -11 -541 0 -529 0 -533 57 -646 33 -64 134 -165 198 -198 123 -62 -149 -57 3290 -57 3439 0 3167 -5 3290 57 64 33 165 134 198 198 57 113 57 117 57 646 0 318 -4 507 -11 541 -39 187 -200 348 -387 387 -81 17 -6238 14 -6309 -3z"></path></g><g id="layer103" fill="#07b53b" stroke="none"><path d="M603 1475 c-172 -47 -313 -189 -358 -360 -21 -81 -21 -349 0 -430 34 -129 138 -261 253 -319 113 -57 94 -56 997 -56 704 0 840 2 888 15 175 45 316 187 362 360 21 81 21 349 0 430 -34 129 -138 261 -253 319 -113 57 -93 56 -1002 55 -685 0 -844 -3 -887 -14z"></path><path d="M3086 1364 c-30 -29 -16 -48 54 -73 30 -10 73 -27 94 -37 l39 -19 -149 -5 -149 -5 -3 -27 c-4 -37 11 -40 212 -36 152 3 169 5 182 22 8 11 14 24 14 29 0 23 -86 89 -163 127 -92 44 -108 47 -131 24z"></path><path d="M3523 1363 c-25 -10 -13 -44 22 -64 39 -23 45 -39 16 -39 -26 0 -69 -40 -72 -65 -5 -64 21 -95 81 -95 33 0 40 -3 40 -20 0 -19 -6 -20 -97 -18 l-98 3 0 -25 c0 -30 25 -37 128 -39 60 -1 67 -3 67 -21 0 -23 32 -43 54 -34 9 3 19 17 22 30 6 22 12 24 60 24 43 0 55 4 64 20 17 32 4 40 -62 40 l-60 0 7 93 c6 92 6 92 -25 135 -39 55 -110 91 -147 75z m90 -176 c8 -21 -8 -39 -29 -35 -11 2 -20 13 -22 26 -3 18 1 22 21 22 14 0 27 -6 30 -13z"></path><path d="M4350 1355 c-7 -8 -10 -25 -6 -40 6 -22 12 -25 52 -25 l45 0 -3 -57 -3 -58 -85 -3 c-84 -3 -85 -3 -122 -42 -39 -40 -50 -80 -23 -80 8 0 24 12 35 28 19 25 24 27 82 23 61 -3 62 -3 35 -17 -18 -10 -27 -23 -27 -39 0 -17 -6 -25 -22 -27 -27 -3 -38 -46 -16 -59 18 -12 311 -11 342 1 39 15 35 55 -11 102 -36 37 -36 38 -13 38 42 0 67 11 76 31 8 18 11 18 32 4 28 -20 28 -39 -1 -62 -13 -10 -26 -23 -30 -30 -11 -17 3 -43 23 -43 10 0 23 -13 30 -31 9 -22 18 -29 34 -27 16 2 21 10 20 33 0 17 -4 39 -8 50 -4 11 2 3 14 -18 25 -45 46 -56 67 -34 14 14 13 20 -11 66 -23 45 -24 51 -9 51 18 0 30 -20 64 -110 13 -36 22 -45 40 -45 15 0 28 8 34 23 8 19 17 22 62 22 80 0 86 15 81 189 -3 123 -5 143 -24 168 -18 24 -29 28 -78 31 -66 3 -88 -9 -84 -47 3 -25 6 -26 52 -23 33 2 52 -1 57 -10 5 -7 9 -64 9 -125 l0 -113 -47 0 c-43 0 -50 3 -65 30 -11 20 -25 30 -41 30 -21 0 -24 4 -23 43 1 41 0 42 -31 41 -28 -2 -33 2 -32 20 0 11 3 15 6 9 7 -20 41 -15 53 6 5 11 11 41 13 68 2 45 1 48 -23 48 -22 0 -26 -6 -37 -55 l-11 -55 -1 68 -1 68 -27 -3 c-25 -3 -29 -8 -34 -48 -3 -25 -7 -35 -7 -23 -3 38 -14 53 -38 53 -33 0 -37 -16 -21 -81 13 -48 17 -54 41 -54 14 1 26 -3 26 -7 0 -4 -15 -8 -34 -8 -19 0 -36 -5 -38 -12 -2 -6 -14 5 -25 25 -27 45 -65 71 -93 62 -24 -8 -26 -37 -4 -55 8 -8 20 -22 25 -32 9 -16 5 -18 -36 -18 l-45 0 0 88 c0 55 -4 92 -12 100 -18 18 -133 16 -148 -3z m470 -235 c0 -5 -2 -10 -4 -10 -3 0 -8 5 -11 10 -3 6 -1 10 4 10 6 0 11 -4 11 -10z m-295 -70 l29 -30 -85 0 -84 0 50 30 c28 16 53 29 56 29 3 1 18 -12 34 -29z"></path><path d="M5253 1363 c-25 -10 -13 -44 22 -64 39 -23 45 -39 16 -39 -26 0 -69 -40 -72 -65 -5 -64 21 -95 81 -95 33 0 40 -3 40 -20 0 -19 -6 -20 -97 -18 l-98 3 0 -25 c0 -30 25 -37 128 -39 60 -1 67 -3 67 -21 0 -23 32 -43 54 -34 9 3 19 17 22 30 6 22 12 24 60 24 43 0 55 4 64 20 17 32 4 40 -62 40 l-60 0 7 93 c6 92 6 92 -25 135 -39 55 -110 91 -147 75z m90 -176 c8 -21 -8 -39 -29 -35 -11 2 -20 13 -22 26 -3 18 1 22 21 22 14 0 27 -6 30 -13z"></path><path d="M5730 1353 c-28 -10 -60 -46 -60 -68 0 -63 104 -87 167 -39 40 30 63 20 63 -27 0 -24 -7 -33 -35 -46 -31 -15 -43 -15 -92 -5 -30 6 -77 25 -103 42 -53 34 -63 36 -80 15 -18 -22 3 -49 94 -120 l77 -60 -63 -5 c-54 -4 -63 -8 -66 -26 -2 -11 3 -25 10 -31 13 -11 222 -24 246 -16 6 3 12 15 12 28 0 17 -15 34 -52 62 l-53 38 53 6 c65 8 99 30 118 76 40 95 -42 184 -167 182 -30 0 -61 -3 -69 -6z m55 -68 c-21 -17 -37 -15 -43 3 -2 8 8 12 30 12 31 -1 32 -1 13 -15z"></path><path d="M4025 1270 c-119 -88 -139 -108 -129 -134 6 -16 184 -150 232 -175 18 -10 27 -10 38 0 30 25 15 48 -81 114 -52 37 -95 70 -95 74 0 4 41 35 91 70 49 34 93 70 96 78 7 19 -8 47 -28 51 -8 1 -64 -34 -124 -78z"></path><path d="M4953 1206 c-29 -59 -26 -86 10 -86 17 0 28 11 45 45 27 56 28 71 3 85 -29 15 -29 15 -58 -44z"></path><path d="M6230 915 l0 -285 283 141 c155 78 283 142 284 143 1 1 -126 66 -283 144 l-284 142 0 -285z"></path><path d="M4147 1129 c-18 -32 -15 -49 8 -49 17 0 45 38 45 62 0 29 -33 21 -53 -13z"></path><path d="M2961 1117 c-6 -6 -11 -18 -11 -26 0 -22 192 -161 222 -161 19 0 88 43 213 134 27 20 10 48 -36 58 -53 12 -375 8 -388 -5z m256 -77 c-43 -37 -53 -37 -97 0 l-35 29 83 1 83 0 -34 -30z"></path><path d="M4061 786 c-15 -18 2 -56 24 -56 10 0 15 -11 15 -32 l0 -33 -16 32 c-24 49 -43 60 -126 77 -98 20 -115 20 -126 -1 -13 -24 -4 -43 19 -43 18 0 18 -1 -2 -21 -13 -13 -19 -30 -17 -47 2 -22 8 -27 31 -27 15 1 27 -3 27 -7 0 -4 -13 -8 -29 -8 -32 0 -48 -24 -30 -46 6 -8 22 -14 35 -14 13 0 24 -4 24 -10 0 -5 -9 -10 -20 -10 -11 0 -23 -8 -26 -17 -3 -10 -11 -28 -17 -41 -10 -21 -11 -21 -29 -5 -18 16 -18 17 7 31 34 18 31 56 -5 60 -24 3 -25 6 -21 53 3 44 0 51 -17 56 -11 2 -22 16 -25 29 -4 22 -1 24 35 24 37 0 39 2 36 28 l-3 27 -175 3 c-203 3 -223 0 -218 -31 2 -18 10 -23 44 -25 36 -3 41 -6 37 -23 -3 -11 -17 -25 -30 -30 -23 -8 -25 -14 -21 -59 3 -46 1 -50 -18 -50 -18 0 -34 -17 -34 -36 0 -2 14 -13 32 -24 26 -16 29 -20 15 -26 -21 -8 -23 -43 -3 -50 8 -3 28 2 46 11 25 13 35 14 46 4 26 -21 15 -28 -48 -31 -55 -3 -63 -5 -63 -23 0 -19 7 -20 118 -22 97 -1 119 1 124 13 5 13 9 11 28 -6 26 -24 68 -24 73 1 1 8 -8 27 -22 42 -14 15 -21 29 -17 31 4 3 21 -8 36 -24 34 -35 65 -39 72 -9 5 19 9 18 43 -20 21 -23 45 -41 54 -41 19 0 96 67 96 84 0 7 22 10 70 8 91 -5 91 -22 -1 -22 l-70 0 3 -27 c3 -28 3 -28 88 -31 47 -1 91 2 99 7 9 6 16 33 19 73 3 39 10 67 19 74 9 5 14 19 12 30 -3 15 -14 20 -47 22 -38 3 -42 6 -42 29 l0 26 24 -23 c43 -40 87 1 47 44 l-21 23 20 18 c24 22 26 63 4 72 -9 3 -27 -6 -45 -23 l-29 -28 0 26 c0 14 -8 32 -18 41 -23 21 -75 22 -91 3z m-401 -81 c0 -23 -3 -25 -50 -25 -50 0 -55 4 -44 34 4 11 19 16 50 16 40 0 44 -2 44 -25z m369 -67 c-11 -10 -33 -17 -48 -17 -24 2 -24 2 -3 6 30 6 38 27 22 61 l-12 27 32 -30 31 -30 -22 -17z m-329 -13 c0 -12 -17 -15 -90 -15 -73 0 -90 3 -90 15 0 12 17 15 90 15 73 0 90 -3 90 -15z m400 -24 c0 -15 -9 -20 -45 -23 -25 -2 -45 0 -45 4 0 5 10 8 23 8 13 0 32 7 43 15 24 18 24 18 24 -4z m-353 -42 c-26 -15 -265 -15 -280 0 -8 8 28 11 144 11 114 -1 149 -3 136 -11z m256 -19 c5 -18 14 -20 81 -20 44 0 76 -4 76 -10 0 -6 -26 -10 -58 -10 -32 0 -63 -5 -69 -11 -15 -15 -33 -3 -33 23 0 11 -8 22 -20 25 -25 7 -26 23 -1 23 10 0 21 -9 24 -20z m-353 -58 c0 -5 -8 -16 -18 -25 -17 -16 -20 -15 -42 8 l-23 25 41 0 c23 0 42 -4 42 -8z m294 -27 c-17 -27 -28 -25 -44 6 -10 17 -7 19 25 19 l35 0 -16 -25z"></path><path d="M2992 768 c-15 -15 -16 -208 -1 -294 12 -69 27 -89 59 -79 19 6 21 12 16 48 -3 23 -9 103 -12 177 -5 106 -9 138 -22 148 -20 15 -25 15 -40 0z"></path><path d="M4359 742 l-34 -30 -3 -119 c-4 -155 5 -207 37 -211 13 -2 28 2 33 10 5 7 6 69 2 139 -8 153 -2 169 59 169 53 0 76 -16 117 -80 27 -43 37 -51 59 -48 41 5 39 43 -6 102 -58 75 -83 90 -162 94 -64 4 -70 2 -102 -26z"></path><path d="M3205 756 c-5 -2 -22 -7 -38 -10 -43 -10 -67 -40 -67 -85 0 -51 27 -86 59 -76 20 6 22 11 16 45 -8 50 1 55 104 55 69 0 86 3 95 17 19 31 -13 50 -91 54 -37 2 -72 2 -78 0z"></path><path d="M4914 741 c-56 -25 -74 -54 -74 -116 0 -40 7 -62 31 -99 l30 -49 -30 6 c-17 4 -60 9 -95 13 -64 7 -65 6 -72 -20 -3 -15 -3 -31 2 -36 9 -9 164 -31 315 -45 54 -5 69 -3 83 10 9 9 16 21 16 25 0 15 -42 37 -83 44 -74 13 -140 103 -123 170 6 26 44 43 110 48 33 3 52 27 43 52 -9 23 -100 21 -153 -3z"></path><path d="M3124 468 c-12 -38 19 -49 125 -46 98 3 122 14 108 52 -5 13 -24 16 -116 16 -104 0 -110 -1 -117 -22z"></path></g><g id="layer104" fill="#fefcf7" stroke="none"><path d="M613 1476 c-181 -44 -334 -202 -372 -384 -14 -68 -14 -316 0 -384 39 -187 200 -348 387 -387 74 -15 1660 -15 1734 0 187 39 348 200 387 387 14 68 14 316 0 384 -39 187 -200 348 -387 387 -80 17 -1679 14 -1749 -3z m447 -246 c31 -16 42 -45 30 -76 -10 -25 -12 -26 -29 -10 -9 9 -20 16 -24 16 -9 0 -27 -70 -27 -107 0 -32 1 -33 41 -33 l42 0 -6 -36 c-6 -36 -22 -64 -38 -64 -5 0 -18 9 -29 20 l-20 20 0 -20 c0 -28 -50 -28 -57 0 -4 17 -15 20 -82 22 -75 3 -76 3 -79 31 l-3 27 79 0 c88 0 91 2 92 80 1 48 34 118 62 130 30 12 27 11 48 0z m-306 -20 c8 -8 -23 -68 -58 -114 -19 -24 -66 -15 -66 14 0 10 5 22 10 25 22 13 8 25 -30 25 -22 0 -40 -2 -40 -4 0 -2 11 -28 24 -57 27 -63 24 -79 -12 -79 -24 0 -30 7 -53 68 -20 50 -31 68 -48 70 -16 3 -21 10 -21 34 l0 31 115 -5 c67 -2 115 0 115 5 0 10 50 0 64 -13z m135 10 c49 0 73 -18 64 -48 -4 -19 -11 -22 -29 -18 -21 6 -24 3 -24 -23 0 -21 6 -30 21 -34 15 -4 20 -12 17 -29 -3 -21 -8 -23 -75 -26 l-73 -3 0 31 c0 23 4 30 20 30 31 0 28 57 -2 62 -24 3 -34 28 -24 55 5 11 14 14 37 9 18 -3 48 -6 68 -6z m341 -38 c23 -23 43 -52 46 -70 7 -34 13 -39 31 -21 26 26 103 -68 103 -125 l0 -27 -142 3 -143 3 0 25 c0 25 1 25 103 28 56 1 102 6 102 11 0 5 -7 14 -16 22 -12 10 -17 10 -23 0 -5 -7 -21 -11 -37 -9 -24 2 -30 9 -35 38 -8 50 -25 77 -59 95 -34 17 -34 19 -20 46 16 29 45 23 90 -19z m275 1 c19 -20 43 -58 53 -85 14 -42 20 -48 44 -48 30 0 34 15 22 79 -6 26 -11 31 -35 31 -26 0 -29 4 -29 30 0 29 2 30 43 30 23 0 47 -4 54 -8 22 -14 33 -63 33 -143 l0 -79 -54 0 c-52 0 -55 -1 -58 -27 -2 -22 -9 -29 -30 -31 -23 -3 -27 1 -30 25 -3 25 -7 28 -45 31 -40 3 -43 5 -43 33 0 27 2 29 39 29 40 0 40 0 30 28 -5 16 -25 44 -44 62 -38 36 -42 49 -23 68 19 19 35 14 73 -25z m386 10 c67 -34 98 -85 102 -165 l2 -53 -52 -3 c-45 -3 -53 -6 -53 -23 0 -14 -7 -19 -30 -19 -23 0 -30 5 -30 19 0 17 -8 20 -47 23 l-48 3 -3 63 -3 62 31 0 c28 0 30 -3 30 -35 l0 -35 70 0 c77 0 79 3 53 57 -17 37 -76 72 -120 73 -28 0 -37 14 -23 40 15 28 55 26 121 -7z m237 11 c70 -23 115 -63 152 -137 l31 -62 -22 -18 c-29 -23 -42 -18 -53 23 -15 51 -83 116 -136 130 -25 7 -51 14 -57 16 -7 2 -13 17 -13 34 0 36 20 39 98 14z m292 -54 c0 -38 3 -70 8 -70 4 0 31 13 60 29 l52 29 15 -21 c8 -12 15 -27 15 -34 0 -14 -53 -43 -112 -62 -36 -12 -38 -15 -38 -52 0 -39 -1 -40 -32 -37 l-33 3 -3 129 c-1 72 0 136 2 143 3 7 19 13 36 13 l30 0 0 -70z m-1879 -124 c50 -66 54 -85 21 -97 -23 -9 -29 -7 -42 13 -8 12 -28 37 -44 56 -25 29 -27 36 -17 58 16 36 39 27 82 -30z m207 42 c19 -19 14 -38 -15 -72 -16 -17 -35 -42 -43 -54 -13 -20 -19 -22 -43 -13 l-28 11 20 39 c25 48 69 101 85 101 7 0 17 -5 24 -12z m1400 -43 c7 -14 12 -27 12 -29 0 -5 -97 -46 -108 -46 -5 0 -14 11 -20 25 -11 23 -9 26 36 49 60 32 66 32 80 1z m-1490 -272 l3 -33 -70 0 -71 0 0 -120 0 -120 -35 0 -35 0 0 155 0 156 103 -3 102 -3 3 -32z m107 -118 l0 -150 -35 0 -35 0 -3 140 c-1 76 0 145 3 153 3 8 17 12 37 10 l33 -3 0 -150z m115 70 c0 -47 3 -85 8 -85 4 1 34 39 67 85 54 77 62 85 92 85 l33 0 0 -155 0 -155 -35 0 -34 0 -3 86 -3 85 -63 -85 c-58 -79 -67 -86 -98 -86 l-34 0 0 155 0 155 35 0 35 0 0 -85z m455 50 l0 -30 -67 -3 c-64 -3 -68 -4 -68 -27 0 -23 4 -24 68 -27 l67 -3 0 -30 0 -30 -67 -3 c-64 -3 -68 -4 -68 -27 0 -23 4 -24 68 -27 l67 -3 0 -30 0 -30 -102 -3 -103 -3 0 156 0 156 103 -3 102 -3 0 -30z"></path><path d="M3092 1368 c-7 -7 -12 -22 -12 -33 0 -17 10 -25 42 -34 23 -7 67 -25 97 -39 l56 -27 -150 -5 -150 -5 0 -25 0 -25 193 -3 c208 -3 212 -2 198 51 -14 57 -242 177 -274 145z"></path><path d="M4358 1359 c-21 -12 -23 -42 -4 -58 7 -6 29 -10 47 -9 l34 3 3 -62 3 -63 -90 0 c-81 0 -90 -2 -96 -20 -3 -11 -12 -20 -20 -20 -17 0 -48 -48 -41 -66 9 -22 26 -16 44 16 16 29 20 30 85 30 73 0 85 -10 36 -30 -24 -10 -30 -18 -26 -36 3 -19 -1 -24 -22 -26 -20 -2 -27 -9 -29 -30 l-3 -28 179 0 c147 0 182 3 192 15 18 22 5 59 -35 94 -19 17 -35 33 -35 36 0 3 20 5 44 5 34 0 48 5 59 21 15 20 15 20 43 -5 l29 -25 -32 -26 c-36 -29 -43 -64 -15 -71 9 -3 25 -18 34 -35 31 -54 72 -27 48 32 -20 46 -4 46 20 -1 15 -29 26 -40 36 -36 9 3 18 6 20 6 14 0 0 53 -24 91 -15 24 -31 50 -36 57 -4 7 -2 12 7 12 8 0 14 -8 13 -17 0 -11 7 -19 21 -21 18 -3 24 4 33 38 6 23 9 48 6 56 -6 16 -46 19 -46 4 0 -5 -4 -10 -10 -10 -5 0 -11 42 -12 93 -3 91 -3 92 -28 92 -23 0 -25 -5 -31 -55 -3 -30 -6 -42 -7 -27 -3 40 -19 67 -41 67 -27 0 -31 -19 -15 -80 17 -64 20 -68 44 -52 17 10 20 10 20 -3 0 -10 -10 -15 -31 -15 -23 0 -32 -5 -36 -20 -5 -17 -9 -14 -25 20 -22 45 -64 82 -86 78 -8 -2 -20 -11 -26 -20 -8 -14 -5 -23 17 -46 15 -15 27 -31 27 -35 0 -4 -20 -7 -45 -7 l-45 0 0 84 c0 104 -9 116 -83 116 -29 0 -60 -5 -69 -11z m163 -300 c16 -11 29 -25 29 -30 0 -5 -39 -9 -87 -9 l-88 0 40 21 c22 12 44 25 50 30 14 13 24 11 56 -12z"></path><path d="M4958 1359 c-20 -11 -24 -58 -5 -60 6 -1 32 -2 57 -3 l45 -1 3 -122 3 -123 -50 0 c-46 0 -52 3 -66 30 -16 32 -45 39 -63 17 -8 -10 -5 -29 13 -73 14 -32 25 -64 25 -70 0 -32 70 -20 70 11 0 11 13 15 48 15 74 0 84 13 90 108 2 44 1 115 -3 158 -9 98 -30 124 -102 124 -26 0 -56 -5 -65 -11z"></path><path d="M3514 1345 c-8 -20 9 -40 46 -55 38 -16 38 -26 0 -33 -42 -9 -70 -41 -70 -80 0 -44 33 -75 85 -79 29 -2 41 -8 43 -22 4 -17 -3 -18 -100 -15 l-103 4 0 -25 c0 -21 5 -25 35 -27 144 -11 159 -14 162 -36 5 -34 54 -36 69 -3 10 22 19 25 68 28 53 3 56 5 59 31 3 27 3 27 -56 27 l-60 0 -5 38 c-2 20 0 45 4 54 26 51 -6 135 -70 183 -40 28 -98 34 -107 10z m100 -159 c9 -13 7 -20 -7 -31 -22 -16 -43 -11 -52 13 -4 10 1 22 12 29 21 16 33 13 47 -11z"></path><path d="M5244 1345 c-8 -20 9 -40 46 -55 38 -16 38 -26 0 -33 -42 -9 -70 -41 -70 -80 0 -44 33 -75 85 -79 29 -2 41 -8 43 -22 4 -17 -3 -18 -100 -15 l-103 4 0 -25 c0 -21 5 -25 35 -27 144 -11 159 -14 162 -36 5 -34 54 -36 69 -3 10 22 19 25 68 28 53 3 56 5 59 31 3 27 3 27 -56 27 l-60 0 -5 38 c-2 20 0 45 4 54 26 51 -6 135 -70 183 -40 28 -98 34 -107 10z m100 -159 c9 -13 7 -20 -7 -31 -22 -16 -43 -11 -52 13 -4 10 1 22 12 29 21 16 33 13 47 -11z"></path><path d="M5722 1345 c-37 -16 -57 -56 -42 -85 30 -57 130 -52 176 8 9 12 14 10 32 -13 28 -35 27 -40 -3 -70 -42 -43 -139 -29 -225 30 -44 31 -70 27 -70 -8 0 -18 23 -42 90 -96 50 -40 90 -74 90 -75 0 -2 -30 -2 -67 -2 -63 1 -68 -1 -71 -22 -2 -12 3 -24 11 -27 29 -12 232 -22 245 -12 24 19 11 44 -43 83 -56 40 -70 60 -35 49 36 -11 98 5 130 35 26 24 30 35 30 78 0 35 -6 57 -22 77 -45 57 -153 81 -226 50z m64 -60 c-22 -17 -42 -19 -50 -6 -9 13 5 21 38 21 29 -1 30 -1 12 -15z"></path><path d="M4847 1343 c-3 -5 -9 -37 -13 -71 -6 -59 -5 -62 14 -62 29 0 44 32 40 88 -2 34 -7 48 -20 50 -9 2 -18 -1 -21 -5z"></path><path d="M4013 1258 c-149 -111 -149 -109 2 -217 119 -86 157 -99 163 -55 2 16 -18 35 -97 89 -55 37 -98 72 -95 76 2 4 47 38 100 74 76 54 95 71 92 88 -6 46 -47 33 -165 -55z"></path><path d="M4951 1194 c-25 -58 -20 -79 15 -72 22 4 69 91 60 113 -3 8 -16 15 -29 15 -19 0 -28 -10 -46 -56z"></path><path d="M6230 915 l0 -285 280 140 c154 77 280 142 280 145 0 3 -126 68 -280 145 l-280 140 0 -285z"></path><path d="M4156 1138 c-20 -28 -21 -58 -2 -58 18 0 46 38 46 62 0 25 -26 22 -44 -4z"></path><path d="M2990 1121 c-27 -5 -35 -11 -35 -28 0 -15 26 -40 99 -92 55 -39 107 -71 117 -71 9 0 39 16 65 35 27 19 73 49 102 67 44 27 52 37 50 58 -2 20 -10 26 -43 32 -48 8 -306 8 -355 -1z m225 -86 c-22 -19 -42 -34 -45 -34 -3 -1 -23 15 -45 34 l-40 34 85 0 85 1 -40 -35z"></path><path d="M4067 793 c-15 -15 -7 -55 13 -60 15 -4 20 -14 20 -42 l-1 -36 -13 30 c-28 62 -89 91 -206 97 -42 3 -45 1 -48 -24 -3 -25 0 -28 27 -28 17 0 31 -4 31 -8 0 -5 -10 -8 -22 -8 -17 1 -24 -7 -32 -32 -10 -37 4 -56 37 -48 9 2 17 0 17 -4 0 -5 -12 -10 -27 -12 -22 -2 -28 -8 -28 -28 0 -20 6 -26 28 -28 35 -4 37 -32 2 -32 -17 0 -25 -6 -25 -17 0 -10 -7 -26 -14 -35 -12 -17 -14 -17 -31 2 -17 19 -17 20 9 31 27 13 30 18 20 43 -7 19 -37 21 -67 4 -14 -8 -57 -11 -120 -9 -62 2 -103 -2 -112 -9 -10 -8 -21 -6 -47 10 -46 28 -78 27 -78 -3 0 -16 9 -28 26 -36 25 -11 25 -13 10 -30 -34 -38 -3 -62 44 -34 24 14 31 14 44 4 28 -23 17 -31 -43 -31 -62 0 -75 -7 -65 -35 6 -14 22 -16 113 -14 78 1 111 6 124 17 16 14 19 13 40 -6 28 -26 40 -27 57 -7 11 13 9 20 -14 44 -19 20 -24 31 -16 36 7 4 23 -6 39 -25 21 -26 31 -31 50 -25 17 5 21 12 17 28 -3 14 9 6 43 -27 48 -48 49 -48 79 -32 54 28 91 93 62 111 -5 3 -10 15 -10 25 0 11 -8 20 -22 22 -32 5 -35 28 -3 28 18 0 29 6 32 19 3 11 11 17 18 15 7 -3 27 2 44 11 30 15 31 15 31 -4 0 -16 -8 -20 -42 -23 -38 -3 -43 -6 -43 -28 0 -24 3 -25 73 -28 93 -4 95 -26 4 -30 -54 -3 -62 -6 -62 -22 0 -18 7 -20 65 -20 86 0 84 -18 -2 -22 -62 -3 -68 -5 -71 -26 -3 -23 -3 -23 95 -20 l98 3 3 66 c2 57 6 68 22 72 24 6 27 42 4 51 -9 3 -31 6 -50 6 -30 0 -34 3 -34 25 0 30 7 31 40 6 18 -14 29 -17 42 -10 25 14 22 36 -7 55 l-25 16 25 24 c50 47 19 93 -34 49 -37 -32 -41 -31 -41 5 0 19 -7 33 -19 40 -22 11 -64 13 -74 3z m-39 -112 l21 -29 -22 -19 c-17 -15 -29 -18 -52 -12 -20 4 -23 7 -10 8 34 2 47 16 40 44 -5 18 -15 27 -33 30 -25 4 -25 4 4 6 23 1 35 -6 52 -28z m-368 -187 c0 -3 -11 -19 -24 -34 l-23 -28 -22 28 c-11 16 -21 32 -21 35 0 3 20 5 45 5 25 0 45 -3 45 -6z m288 -36 c-9 -13 -19 -23 -23 -23 -4 0 -14 10 -22 23 -15 21 -15 22 22 22 37 0 37 -1 23 -22z"></path><path d="M3414 765 c-10 -24 5 -35 47 -35 21 0 39 -3 39 -6 0 -15 -22 -44 -34 -44 -16 0 -26 -21 -26 -55 0 -55 0 -55 170 -55 170 0 170 0 170 55 0 34 -10 55 -26 55 -8 0 -14 4 -14 9 0 5 -3 16 -6 25 -5 13 2 16 35 16 37 0 41 2 41 25 l0 25 -195 0 c-162 0 -197 -3 -201 -15z m246 -44 c0 -5 3 -16 6 -25 5 -13 -3 -16 -50 -16 -48 0 -56 3 -56 18 0 10 3 22 7 25 10 11 93 8 93 -2z m43 -96 c-3 -11 -157 -20 -180 -11 -8 3 -11 11 -8 16 9 14 191 9 188 -5z"></path><path d="M2984 744 c-9 -37 2 -260 16 -307 10 -33 15 -38 38 -35 24 3 27 7 25 38 -2 19 -6 100 -10 180 l-8 145 -27 3 c-22 3 -29 -2 -34 -24z"></path><path d="M4390 763 c-60 -22 -74 -72 -65 -240 7 -141 15 -160 54 -136 14 9 16 30 12 151 l-3 140 25 17 c51 33 121 -5 174 -96 21 -36 66 -38 71 -4 5 34 -67 127 -118 153 -42 21 -114 28 -150 15z"></path><path d="M4939 751 c-45 -14 -68 -31 -84 -61 -28 -54 -14 -129 33 -183 8 -9 12 -20 9 -23 -3 -4 -43 -1 -88 6 -72 10 -84 10 -98 -4 -44 -45 62 -75 279 -79 l115 -2 0 25 c0 22 -7 27 -50 37 -86 21 -145 84 -145 153 0 48 17 61 87 69 62 7 87 28 64 55 -14 17 -76 20 -122 7z"></path><path d="M3145 738 c-32 -18 -44 -40 -44 -78 0 -45 20 -73 51 -68 20 3 23 8 20 40 -4 50 19 61 117 57 l76 -4 0 30 0 30 -100 2 c-62 2 -108 -2 -120 -9z"></path><path d="M3131 477 c-30 -37 13 -57 120 -57 78 0 111 13 107 43 -3 21 -8 22 -109 25 -82 2 -109 -1 -118 -11z"></path></g></svg>