<svg xmlns="http://www.w3.org/2000/svg" width="328px" height="100px" viewBox="0 0 3280 1000" preserveAspectRatio="xMidYMid meet"><g id="layer101" fill="#f2b336" stroke="none"><path d="M282 980 c-29 -10 -67 -28 -86 -39 -54 -34 -135 -127 -164 -188 -26 -57 -27 -62 -27 -253 0 -191 1 -196 27 -253 38 -81 126 -170 207 -210 l66 -32 1335 0 1335 0 66 32 c81 40 169 129 207 210 26 57 27 62 27 253 0 191 -1 196 -27 253 -38 81 -126 170 -207 210 l-66 32 -1320 2 c-1276 2 -1322 2 -1373 -17z"></path></g><g id="layer102" fill="#fefaf3" stroke="none"><path d="M437 653 c-11 -11 -8 -33 6 -38 85 -30 127 -48 127 -56 0 -5 -49 -9 -110 -9 -104 0 -110 -1 -110 -20 0 -20 5 -20 148 -18 141 3 147 4 150 24 7 48 -178 150 -211 117z"></path><path d="M751 646 c-10 -12 -5 -19 26 -40 29 -20 33 -26 18 -26 -34 0 -65 -28 -65 -60 0 -37 24 -60 61 -60 19 0 29 -5 29 -15 0 -12 -15 -15 -76 -15 -66 0 -75 -2 -72 -17 3 -15 16 -19 76 -21 62 -2 72 -5 72 -21 0 -29 32 -36 49 -12 7 12 23 21 35 21 41 0 66 12 66 31 0 16 -8 19 -44 19 -39 0 -44 3 -49 27 -3 14 0 39 5 54 8 22 6 37 -9 66 -29 58 -98 98 -122 69z m72 -120 c8 -20 -20 -43 -35 -28 -14 14 -3 42 16 42 7 0 16 -6 19 -14z"></path><path d="M1381 646 c-20 -23 -2 -46 36 -46 34 0 34 0 31 -42 l-3 -43 -67 -3 c-52 -2 -68 -6 -68 -17 0 -8 -6 -15 -13 -15 -18 0 -41 -40 -29 -52 6 -6 16 -1 28 14 17 20 25 22 69 18 49 -5 49 -5 21 -18 -17 -8 -26 -18 -23 -26 3 -8 -2 -16 -14 -19 -11 -3 -19 -14 -19 -26 0 -20 5 -21 124 -21 68 0 131 3 140 6 25 10 19 43 -13 75 l-29 29 28 0 c16 0 36 7 45 16 15 16 18 16 33 0 16 -15 15 -18 -12 -40 -30 -24 -31 -56 -2 -56 8 0 18 -9 21 -20 7 -21 30 -27 40 -10 3 5 1 19 -5 31 -7 11 -9 23 -6 26 3 3 11 -6 17 -21 13 -28 49 -36 49 -11 0 9 -7 29 -15 45 -13 25 -13 30 -2 30 8 0 26 -27 40 -60 28 -64 39 -72 59 -40 9 14 24 20 49 20 56 0 61 13 57 145 -3 102 -6 118 -22 131 -26 18 -90 18 -106 -1 -20 -24 -6 -40 36 -40 l39 0 3 -92 3 -93 -34 0 c-26 0 -39 6 -51 25 -11 17 -23 24 -35 20 -14 -4 -16 0 -13 31 4 35 3 37 -22 30 l-26 -6 0 70 c0 63 -2 70 -20 70 -16 0 -20 -7 -20 -37 l-1 -38 -14 32 c-10 23 -19 31 -29 27 -19 -7 -19 -16 -5 -67 8 -31 14 -38 30 -34 10 3 19 2 19 -3 0 -4 -13 -10 -30 -12 -16 -3 -30 -1 -30 2 0 14 -50 60 -65 60 -27 0 -29 -29 -5 -56 l23 -24 -36 0 -37 0 0 63 c0 36 -5 68 -12 75 -16 16 -93 15 -107 -2z m134 -226 c18 -20 17 -20 -46 -20 l-64 0 30 19 c39 25 58 25 80 1z"></path><path d="M2051 646 c-10 -12 -5 -19 26 -40 29 -20 33 -26 18 -26 -34 0 -65 -28 -65 -60 0 -37 24 -60 61 -60 19 0 29 -5 29 -15 0 -12 -15 -15 -76 -15 -66 0 -75 -2 -72 -17 3 -15 16 -19 76 -21 62 -2 72 -5 72 -21 0 -29 32 -36 49 -12 7 12 23 21 35 21 41 0 66 12 66 31 0 16 -8 19 -44 19 -39 0 -44 3 -49 27 -3 14 0 39 5 54 8 22 6 37 -9 66 -29 58 -98 98 -122 69z m72 -120 c8 -20 -20 -43 -35 -28 -14 14 -3 42 16 42 7 0 16 -6 19 -14z"></path><path d="M2382 634 c-44 -30 -17 -84 42 -84 18 0 44 9 58 20 19 14 28 16 36 8 22 -22 14 -55 -17 -68 -36 -15 -82 -6 -138 26 -52 30 -63 30 -63 2 1 -16 20 -38 66 -73 l65 -50 -51 -3 c-41 -3 -50 -6 -50 -22 0 -15 11 -20 63 -25 134 -14 168 7 96 60 -38 28 -39 30 -17 33 78 9 108 34 108 88 0 46 -14 70 -50 89 -38 20 -119 19 -148 -1z m73 -34 c-3 -5 -15 -10 -26 -10 -10 0 -19 5 -19 10 0 6 12 10 26 10 14 0 23 -4 19 -10z"></path><path d="M2810 495 l0 -155 153 76 c83 42 153 77 154 78 1 1 -67 36 -152 79 l-155 77 0 -155z"></path><path d="M1128 575 c-49 -36 -88 -72 -88 -80 0 -19 170 -146 190 -142 8 1 15 11 15 22 0 13 -22 35 -67 65 -37 25 -66 50 -64 55 1 6 32 30 69 55 49 33 66 50 64 65 -4 35 -30 27 -119 -40z"></path><path d="M1736 618 c-11 -41 -7 -78 8 -78 19 0 24 9 32 58 6 38 4 42 -14 42 -12 0 -22 -9 -26 -22z"></path><path d="M1824 537 c-27 -56 -1 -92 31 -44 22 34 23 70 3 75 -12 2 -23 -8 -34 -31z"></path><path d="M1232 479 c-7 -12 -11 -24 -7 -27 9 -9 40 13 43 32 5 23 -21 20 -36 -5z"></path><path d="M345 472 c-15 -16 2 -41 52 -77 88 -62 100 -67 123 -55 53 28 151 103 147 113 -2 6 -19 15 -38 19 -37 8 -275 8 -284 0z m192 -57 c-35 -31 -48 -31 -77 0 l-23 25 64 0 64 -1 -28 -24z"></path></g></svg>